{"asset":{"version":"2.0","generator":"Created using the official Cinema 4D glTF Exporter 1.000x287526"},"scenes":[{"nodes":[0]}],"nodes":[{"name":"Mask","mesh":0}],"meshes":[{"primitives":[{"attributes":{"POSITION":1},"indices":0,"material":0}]}],"accessors":[{"bufferView":0,"type":"SCALAR","componentType":5123,"count":55008,"byteOffset":0,"min":[0],"max":[9545]},{"bufferView":1,"type":"VEC3","componentType":5126,"count":9546,"byteOffset":0,"min":[-88.02470397949219,-114.70661926269531,-123.00716400146484],"max":[82.31513214111328,223.84423828125,59.08074951171875]}],"bufferViews":[{"buffer":0,"byteOffset":0,"byteLength":110016,"target":34963},{"buffer":0,"byteOffset":110016,"byteLength":114552,"target":34962}],"buffers":[{"uri":"data:application/octet-stream;base64,","byteLength":224568}],"materials":[{"pbrMetallicRoughness":{"baseColorFactor":[1,1,1,1],"metallicFactor":1,"roughnessFactor":1},"emissiveFactor":[0,0,0],"alphaMode":"OPAQUE","doubleSided":false,"name":""}]}