{
	"asset":{
		"version":"2.0",
		"generator":"Created using the official Cinema 4D glTF Exporter 1.000x287526"
	},
	"scenes":[{
		"nodes":[0]
	}],
	"nodes":[{
		"name":"ZBrush_defualt_group",
		"mesh":0
	}],
	"meshes":[{
		"primitives":[{
			"attributes":{
				"POSITION":1,
				"NORMAL":2,
				"TEXCOORD_0":3
			},
			"indices":0,
			"material":0
		}]
	}],
	"accessors":[{
		"bufferView":0,
		"type":"SCALAR",
		"componentType":5123,
		"count":55008,
		"byteOffset":0,
		"min":[0],
		"max":[11681]
	},
	{
		"bufferView":1,
		"type":"VEC3",
		"componentType":5126,
		"count":11682,
		"byteOffset":0,
		"min":[-1.1387399435043336,
		-1.4839099645614625,
		-1.5913000106811524],
		"max":[1.0648800134658814,
		2.8957901000976564,
		0.7643049955368042]
	},
	{
		"bufferView":1,
		"type":"VEC3",
		"componentType":5126,
		"count":11682,
		"byteOffset":12,
		"min":[-0.9999688267707825,
		-0.9995625615119934,
		-1.0],
		"max":[0.9998750686645508,
		0.9999688267707825,
		0.9999688267707825]
	},
	{
		"bufferView":1,
		"type":"VEC2",
		"componentType":5126,
		"count":11682,
		"byteOffset":24,
		"min":[0.0,
		0.0],
		"max":[0.0,
		0.0]
	}],
	"bufferViews":[{
		"buffer":0,
		"byteOffset":0,
		"byteLength":110016,
		"target":34963
	},
	{
		"buffer":0,
		"byteOffset":110016,
		"byteLength":373824,
		"target":34962,
		"byteStride":32
	}],
	"buffers":[{
		"uri":"data:application/octet-stream;base64,",
		"byteLength":483840
	}],
	"materials":[{
		"pbrMetallicRoughness":{
			"baseColorFactor":[1.0,
			1.0,
			1.0,
			1.0],
			"metallicFactor":1.0,
			"roughnessFactor":1.0
		},
		"emissiveFactor":[0.0,
		0.0,
		0.0],
		"alphaMode":"OPAQUE",
		"doubleSided":false,
		"name":""
	}]
}