{
	"asset":{
		"version":"2.0",
		"generator":"Created using the official Cinema 4D glTF Exporter 1.000x287526"
	},
	"scenes":[{
		"nodes":[0]
	}],
	"nodes":[{
		"name":"ZBrush_defualt_group",
		"mesh":0
	}],
	"meshes":[{
		"primitives":[{
			"attributes":{
				"POSITION":1,
				"NORMAL":2,
				"TEXCOORD_0":3
			},
			"indices":0,
			"material":0
		}]
	}],
	"accessors":[{
		"bufferView":0,
		"type":"SCALAR",
		"componentType":5123,
		"count":55008,
		"byteOffset":0,
		"min":[0],
		"max":[11760]
	},
	{
		"bufferView":1,
		"type":"VEC3",
		"componentType":5126,
		"count":11761,
		"byteOffset":0,
		"min":[-113.87413024902344,
		-148.39149475097657,
		-159.12957763671876],
		"max":[106.48788452148438,
		289.5785827636719,
		76.43046569824219]
	},
	{
		"bufferView":1,
		"type":"VEC3",
		"componentType":5126,
		"count":11761,
		"byteOffset":12,
		"min":[-0.9999694228172302,
		-0.9996175169944763,
		-1.0],
		"max":[0.9999141693115234,
		0.9999921917915344,
		0.999993085861206]
	},
	{
		"bufferView":1,
		"type":"VEC2",
		"componentType":5126,
		"count":11761,
		"byteOffset":24,
		"min":[0.10750000178813935,
		0.004639999940991402],
		"max":[0.8722400069236755,
		0.9939099550247192]
	}],
	"bufferViews":[{
		"buffer":0,
		"byteOffset":0,
		"byteLength":110016,
		"target":34963
	},
	{
		"buffer":0,
		"byteOffset":110016,
		"byteLength":376352,
		"target":34962,
		"byteStride":32
	}],
	"buffers":[{
		"uri":"data:application/octet-stream;base64,",
		"byteLength":486368
	}],
	"materials":[{
		"emissiveFactor":[0.0,
		0.0,
		0.0],
		"pbrMetallicRoughness":{
			"baseColorFactor":[1.0,
			1.0,
			1.0,
			1.0],
			"metallicFactor":1.0,
			"roughnessFactor":1.0
		},
		"alphaMode":"OPAQUE",
		"doubleSided":false,
		"name":""
	}]
}