{
	"asset":{
		"version":"2.0",
		"generator":"Created using the official Cinema 4D glTF Exporter 1.000x287526"
	},
	"scenes":[{
		"nodes":[0]
	}],
	"nodes":[{
		"name":"Taj",
		"translation":[16.411170959472658,
		14.7019624710083,
		-84.05547332763672],
		"rotation":[0.6893540620803833,
		0.7221693396568298,
		-0.0033072405494749548,
		-0.05702132359147072],
		"scale":[1.0,
		1.0,
		1.0],
		"mesh":0
	}],
	"meshes":[{
		"primitives":[{
			"attributes":{
				"POSITION":1,
				"TEXCOORD_0":2
			},
			"indices":0,
			"material":0
		}]
	}],
	"accessors":[{
		"bufferView":0,
		"type":"SCALAR",
		"componentType":5123,
		"count":51540,
		"byteOffset":0,
		"min":[0],
		"max":[8729]
	},
	{
		"bufferView":1,
		"type":"VEC3",
		"componentType":5126,
		"count":8730,
		"byteOffset":0,
		"min":[-220.0653076171875,
		-136.30755615234376,
		-168.269775390625],
		"max":[254.79905700683595,
		142.04783630371095,
		170.139404296875]
	},
	{
		"bufferView":1,
		"type":"VEC2",
		"componentType":5126,
		"count":8730,
		"byteOffset":12,
		"min":[0.00048826393322087824,
		0.0004882638459093869],
		"max":[0.9243769645690918,
		0.99951171875]
	}],
	"bufferViews":[{
		"buffer":0,
		"byteOffset":0,
		"byteLength":103080,
		"target":34963
	},
	{
		"buffer":0,
		"byteOffset":103080,
		"byteLength":174600,
		"target":34962,
		"byteStride":20
	}],
	"buffers":[{
		"uri":"data:application/octet-stream;base64,",
		"byteLength":277680
	}],
	"images":[{
		"uri":"data:image/jpeg;base64,"
	}],
	"samplers":[{
		"magFilter":9729,
		"minFilter":9729,
		"wrapS":10497,
		"wrapT":10497
	}],
	"textures":[{
		"sampler":0,
		"source":0
	}],
	"materials":[{
		"pbrMetallicRoughness":{
			"baseColorTexture":{
				"index":0
			},
			"baseColorFactor":[1.0,
			1.0,
			1.0,
			1.0],
			"metallicFactor":0.0,
			"roughnessFactor":0.5
		},
		"emissiveFactor":[0.0,
		0.0,
		0.0],
		"alphaMode":"OPAQUE",
		"doubleSided":true,
		"name":"Mat"
	}]
}